<svg version="1.1" id="Layer_1" xmlns="http://www.w3.org/2000/svg" xmlns:xlink="http://www.w3.org/1999/xlink" x="0px" y="0px"
	 width="100%" viewBox="0 0 1200 1200" enable-background="new 0 0 1200 1200" xml:space="preserve">
<path fill="#C1A262" opacity="1.000000" stroke="none"
	d="
M1150.903687,1128.982910
	C1150.959961,1129.311157 1151.056274,1129.637939 1151.066895,1129.967773
	C1151.518311,1143.928589 1151.517334,1143.926270 1137.675903,1143.928955
	C1081.516235,1143.940063 1025.356201,1144.025391 969.197754,1143.783203
	C965.858887,1143.768921 962.200256,1141.622070 959.259094,1139.628540
	C949.461182,1132.987549 939.922791,1125.963501 930.284424,1119.087158
	C916.613647,1109.333862 903.049072,1099.426758 889.233459,1089.883179
	C880.125977,1083.591919 870.487488,1078.068604 861.390259,1071.763306
	C848.757141,1063.007446 836.507690,1053.699219 823.908875,1044.892212
	C812.659424,1037.028809 801.095520,1029.616577 789.789673,1021.831970
	C781.136292,1015.873596 772.689514,1009.616211 764.114258,1003.543457
	C752.553650,995.356567 740.991516,987.171021 729.365051,979.078247
	C721.921265,973.896851 714.419312,968.792786 706.806030,963.866394
	C705.139404,962.788025 702.891235,962.104492 700.907349,962.096252
	C672.411438,961.977722 643.914978,961.977539 615.418823,962.042053
	C612.466003,962.048767 609.514526,962.650452 605.928467,963.046021
	C605.928467,966.299683 605.928467,969.407288 605.928467,972.514954
	C605.928467,1027.175415 605.929382,1081.835938 605.927246,1136.496338
	C605.926941,1143.445679 605.418823,1143.933594 598.667480,1143.932739
	C542.340576,1143.925903 486.013306,1143.844482 429.687256,1144.066162
	C424.377228,1144.087036 419.946503,1142.757935 415.868713,1139.884399
	C404.668030,1131.991577 393.656311,1123.830078 382.433014,1115.970215
	C375.626465,1111.203491 368.482727,1106.920166 361.640839,1102.201538
	C353.528839,1096.606934 345.657593,1090.662964 337.539093,1085.078003
	C326.406647,1077.419922 315.050415,1070.085693 303.955811,1062.374146
	C292.888611,1054.681641 282.098083,1046.591553 271.053650,1038.865356
	C259.542511,1030.812500 247.831573,1023.045837 236.290039,1015.035889
	C230.415482,1010.958740 224.791641,1006.520874 218.928223,1002.426880
	C210.805069,996.754883 202.521286,991.313232 194.383087,985.662354
	C185.050049,979.181946 175.815369,972.560059 166.508377,966.041809
	C162.866898,963.491455 159.127869,961.824341 154.324951,961.862854
	C124.330795,962.103882 94.333244,961.909668 64.338600,962.116760
	C59.355320,962.151123 57.881859,960.742310 57.899052,955.633301
	C58.089191,899.140320 58.023254,842.646545 58.026569,786.152954
	C58.026745,783.209167 58.026596,780.265381 58.026596,777.004028
	C60.035542,777.004028 61.677460,777.004089 63.319378,777.004089
	C119.979553,777.003845 176.642029,777.250854 233.297287,776.723633
	C241.346603,776.648743 246.708694,780.189575 252.452148,784.105103
	C261.557007,790.312073 270.443329,796.838806 279.458038,803.179138
	C285.978668,807.765198 292.553223,812.274658 299.111328,816.807373
	C311.736267,825.533386 324.404449,834.197449 336.982544,842.990417
	C346.865051,849.899109 356.550934,857.090942 366.484467,863.924011
	C377.844177,871.738159 389.471008,879.164429 400.814575,887.001221
	C411.033569,894.061035 421.002228,901.482300 431.128784,908.677246
	C436.974884,912.830811 442.915558,916.851196 448.812866,920.932678
	C455.360382,925.464294 461.910736,929.991821 468.453186,934.530701
	C479.148163,941.950134 489.799774,949.433472 500.576843,956.731567
	C501.953430,957.663696 503.971863,958.011475 505.694305,958.015259
	C537.023499,958.084106 568.352905,958.060181 599.682251,958.042969
	C600.328003,958.042664 600.973633,957.886047 601.290039,957.844971
	C601.290039,947.393921 601.290039,937.131653 601.503296,926.060791
	C601.818604,924.597290 602.009460,923.942444 602.010132,923.287476
	C602.032043,901.818787 602.050110,880.350159 602.005798,858.881531
	C602.003174,857.617554 601.476440,856.354614 601.193604,855.091187
	C601.193604,830.614075 601.193604,806.137024 601.193604,780.968445
	C599.031250,780.968445 597.098511,780.968445 595.165833,780.968445
	C539.512451,780.968384 483.858673,781.054077 428.206512,780.793091
	C424.100983,780.773865 419.518585,779.018616 415.997589,776.760803
	C404.409088,769.330078 393.138367,761.394104 381.877319,753.465088
	C372.010315,746.517639 362.416077,739.181641 352.524475,732.270386
	C343.709686,726.111450 334.580170,720.404419 325.723938,714.302917
	C317.587097,708.696960 309.715363,702.705688 301.565155,697.120056
	C295.339508,692.853394 288.709747,689.171814 282.529327,684.844971
	C271.899475,677.403198 261.482574,669.657288 250.970535,662.047058
	C245.562485,658.131836 240.209488,654.135864 234.713669,650.347534
	C221.127716,640.982666 207.428452,631.781982 193.861618,622.389709
	C183.169647,614.987671 172.840439,607.025940 161.836105,600.133423
	C158.781158,598.219971 153.895172,598.952820 149.848267,598.944641
	C121.357941,598.887085 92.867363,598.950989 64.376869,598.981262
	C57.748924,598.988281 57.523750,598.738220 57.999027,592.088013
	C58.093838,590.761414 58.027084,589.422974 58.027073,588.089966
	C58.026531,533.936218 58.026508,479.782501 58.017170,425.628754
	C58.016880,423.967651 58.130520,422.266998 57.828915,420.652405
	C56.595428,414.049316 56.600689,413.989655 63.438118,413.989105
	C119.091469,413.984436 174.748871,414.316345 230.394226,413.647308
	C239.741119,413.534882 246.622559,416.681793 253.507675,421.525543
	C267.011871,431.025848 280.354248,440.755859 293.835846,450.288605
	C305.902588,458.821045 318.002289,467.310059 330.205994,475.644684
	C341.816010,483.573914 353.704681,491.098511 365.244720,499.126099
	C380.878510,510.001495 396.254059,521.247375 411.822205,532.218140
	C422.327148,539.620911 433.009674,546.771301 443.545258,554.131104
	C452.628662,560.476501 461.578339,567.013245 470.657227,573.365234
	C480.822723,580.477539 491.053528,587.497070 501.306335,594.483032
	C502.023224,594.971497 503.157227,594.988464 504.097260,594.988525
	C536.255798,594.991028 568.414307,594.965698 600.572876,594.930847
	C600.887939,594.930542 601.202820,594.748413 601.289856,594.721497
	C601.289856,589.718384 601.289856,584.791321 601.498047,579.055054
	C601.805359,577.589966 601.990356,576.934143 601.991028,576.278198
	C602.022644,545.476562 602.047852,514.674927 602.021667,483.873352
	C602.020569,482.601013 601.520630,481.329102 601.253113,480.056976
	C601.253113,459.263824 601.253113,438.470673 601.253113,417.011780
	C546.454590,417.011780 491.131134,417.000214 435.807648,417.034332
	C431.509369,417.036987 427.211365,417.466339 422.912964,417.471802
	C421.559204,417.473511 419.998383,417.043365 418.883423,416.290710
	C411.227448,411.122467 403.625549,405.871552 396.080444,400.542175
	C382.212311,390.746735 368.459595,380.786896 354.538330,371.068085
	C341.431519,361.917816 328.101166,353.087585 314.999664,343.929901
	C306.210968,337.786835 297.763794,331.153992 288.954742,325.041565
	C280.281189,319.023193 271.276764,313.483643 262.543335,307.548889
	C255.219070,302.571808 248.079407,297.323364 240.851822,292.203766
	C232.922104,286.586884 225.009186,280.945831 217.046570,275.375885
	C201.288315,264.352783 185.517807,253.347046 169.716446,242.385864
	C164.082458,238.477646 158.486969,235.629486 150.918884,235.773361
	C121.940750,236.324234 92.945862,235.997162 63.957226,235.989655
	C57.167004,235.987900 57.181511,235.974945 57.974056,229.446228
	C58.093742,228.460281 58.012753,227.449142 58.012856,226.449646
	C58.018661,171.137802 58.023331,115.825943 58.026901,60.514095
	C58.026966,59.514591 58.113838,58.502132 57.988270,57.517651
	C57.064766,50.276958 58.604412,49.622150 65.990799,50.365410
	C73.625877,51.133690 81.430908,50.213047 89.962479,50.282990
	C92.410889,50.691620 94.058342,50.984589 95.705948,50.985485
	C139.994019,51.009628 184.282120,51.013260 228.570160,50.968674
	C230.357071,50.966873 232.143509,50.461277 233.930161,50.190407
	C240.043030,49.004513 244.535431,51.901756 249.113068,55.528683
	C255.293182,60.425282 261.940948,64.735245 268.425385,69.243195
	C276.568848,74.904503 284.742035,80.523277 292.917023,86.139053
	C304.971619,94.419884 317.086700,102.613670 329.084045,110.976471
	C336.756592,116.324677 344.189240,122.017265 351.865845,127.359413
	C359.156036,132.432663 366.690399,137.154388 373.995178,142.207443
	C381.764160,147.581604 389.401428,153.146820 397.073669,158.659958
	C402.741699,162.732880 408.292725,166.973526 414.039948,170.930145
	C423.404114,177.376801 432.939697,183.574478 442.304230,190.020630
	C453.550995,197.762421 464.681885,205.672318 475.886902,213.475021
	C483.453064,218.743774 490.974457,224.086227 498.710571,229.094940
	C500.632324,230.339142 503.306824,230.942764 505.638855,230.952042
	C535.797668,231.072250 565.957520,230.960220 596.116028,231.114456
	C600.276855,231.135712 602.179138,230.380768 601.094116,225.782928
	C600.653320,223.914886 601.195007,221.814987 601.495850,219.032166
	C601.803467,217.420944 601.992676,216.598236 601.993347,215.775360
	C602.017639,186.143723 602.034119,156.512054 602.000549,126.880455
	C601.999084,125.605919 601.513000,124.331947 601.252686,123.057709
	C601.257446,102.091812 601.265320,81.125908 601.262390,60.160011
	C601.262085,57.968845 600.614502,55.552040 601.346985,53.657360
	C601.941406,52.119751 604.048035,50.404030 605.676514,50.182583
	C609.437073,49.671196 613.314514,50.019295 617.969727,50.276588
	C625.595825,50.690952 632.397644,50.998852 639.197266,50.956970
	C644.812378,50.922386 650.424988,50.474174 656.038696,50.209251
	C660.133606,50.473953 664.231873,51.006744 668.322754,50.954300
	C681.900330,50.780235 695.475220,50.395569 709.892090,50.322277
	C711.550232,50.694683 712.367249,50.959061 713.184570,50.960297
	C731.843811,50.988510 750.503052,51.003540 769.162170,50.959114
	C770.454956,50.956036 771.746521,50.470455 773.038696,50.209259
	C775.201843,50.157852 777.473022,50.515553 779.507751,49.978004
	C785.517334,48.390381 789.330627,52.609688 793.484009,55.275299
	C800.784668,59.960800 807.599854,65.396439 814.698181,70.404907
	C822.438904,75.866638 830.260315,81.214470 838.065002,86.585114
	C845.486755,91.692284 852.967529,96.714478 860.357849,101.866508
	C868.078186,107.248589 875.684509,112.794159 883.408386,118.171021
	C892.047119,124.184776 900.812134,130.017715 909.427002,136.064987
	C915.790955,140.532135 921.918152,145.337799 928.301880,149.775330
	C937.380005,156.085709 946.638733,162.135712 955.739319,168.414429
	C961.797729,172.594330 967.643005,177.083923 973.716370,181.241196
	C979.257996,185.034500 985.019226,188.505417 990.604065,192.237579
	C994.047241,194.538528 997.320190,197.092560 1000.706421,199.480713
	C1009.475891,205.665649 1018.275391,211.807968 1027.043823,217.994400
	C1032.094482,221.557861 1037.020508,225.307693 1042.185913,228.693893
	C1043.996216,229.880585 1046.351074,230.858994 1048.462769,230.869949
	C1079.280884,231.029694 1110.099854,231.010666 1140.918701,231.030746
	C1150.247925,231.036835 1150.247925,231.031906 1150.038696,241.077316
	C1150.033447,292.564728 1150.013916,343.197632 1150.046143,393.830475
	C1150.046997,395.214722 1150.605347,396.598633 1150.903809,397.982666
	C1150.909302,403.452911 1151.388550,408.988617 1150.647461,414.355774
	C1150.407715,416.091583 1146.864990,418.806305 1145.002930,418.674652
	C1088.525513,414.682129 1031.986694,417.867371 975.487305,417.325836
	C966.894165,417.243439 960.736694,413.947906 954.339539,409.747925
	C948.124146,405.667236 942.073853,401.332672 935.992615,397.050568
	C924.234497,388.771179 912.565002,380.364716 900.747742,372.170990
	C889.108826,364.100922 877.299194,356.277557 865.628357,348.252991
	C857.862549,342.913452 850.222717,337.391113 842.502014,331.985626
	C830.125610,323.320557 817.713562,314.706207 805.346130,306.028229
	C797.554321,300.560791 789.864807,294.946747 782.042603,289.523712
	C771.399292,282.144958 760.617371,274.965637 749.997375,267.554016
	C738.235291,259.345337 726.732849,250.756241 714.823914,242.770355
	C709.760681,239.375046 704.473389,235.943954 697.820801,235.961090
	C668.992676,236.035294 640.164307,235.992340 611.335999,235.991974
	C609.704285,235.991959 608.072571,235.991959 606.195679,235.991959
	C606.195679,295.361877 606.195679,354.289398 606.195679,413.990601
	C608.003601,413.990601 609.920227,413.990662 611.836853,413.990601
	C668.327087,413.988586 724.817322,414.028442 781.307312,413.909821
	C786.157043,413.899628 789.740417,415.858490 793.441467,418.578339
	C799.219971,422.824982 805.386475,426.539337 811.255920,430.667847
	C817.927429,435.360565 824.406921,440.325500 831.051575,445.057373
	C845.455627,455.314850 859.808960,465.648773 874.384460,475.658203
	C883.359192,481.821503 892.854004,487.226379 901.842834,493.370514
	C910.660889,499.397949 919.088074,505.994110 927.772339,512.221436
	C935.434692,517.716064 943.203918,523.062195 950.945801,528.445312
	C960.693420,535.223022 970.485657,541.936707 980.213257,548.742859
	C989.341675,555.129883 998.322693,561.731140 1007.530884,567.999756
	C1017.087524,574.505615 1026.850830,580.707397 1036.488403,587.095703
	C1037.576538,587.816895 1038.363647,588.977966 1039.411133,589.776672
	C1044.311646,593.513306 1049.482544,595.281616 1056.030640,595.187439
	C1085.851929,594.758423 1115.683228,595.020203 1145.510864,595.033630
	C1146.827515,595.034180 1148.144043,595.033752 1150.026489,595.033752
	C1150.026489,598.287231 1150.026489,601.248169 1150.035156,605.071716
	C1150.032593,643.503540 1150.002930,681.072876 1150.018188,718.642151
	C1150.025269,736.093933 1150.119873,753.545715 1150.174805,770.997498
	C1150.619751,773.178406 1151.064697,775.359253 1151.741211,778.675354
	C1149.937134,779.310730 1147.555054,780.877625 1145.169434,780.883240
	C1089.684570,781.013977 1034.195190,780.627991 978.717407,781.264771
	C967.760498,781.390503 959.869629,777.091187 951.851501,771.201843
	C945.794861,766.753296 939.623840,762.460327 933.502869,758.099304
	C924.137512,751.426758 914.863342,744.621216 905.382019,738.117798
	C893.964600,730.286316 882.294922,722.822632 870.878296,714.990112
	C862.162170,709.010315 853.721863,702.630127 845.063049,696.564880
	C836.994568,690.913391 828.763306,685.494690 820.672852,679.873962
	C815.082092,675.989990 809.650574,671.877075 804.073486,667.972839
	C794.588928,661.333130 785.010071,654.828003 775.535522,648.174133
	C762.040955,638.696899 748.639160,629.087219 735.132019,619.628113
	C725.422668,612.828613 715.751831,605.950317 705.723328,599.648926
	C703.509827,598.258057 699.860107,599.020020 696.871460,599.016052
	C667.212830,598.976807 637.554260,598.983582 607.895630,598.991943
	C607.424805,598.992065 606.953979,599.175842 606.201111,599.332642
	C606.201111,658.394409 606.201111,717.429932 606.201111,776.996948
	C608.200867,776.996948 609.979919,776.996887 611.758972,776.996948
	C665.744568,776.999207 719.733093,777.293640 773.713013,776.740845
	C783.708252,776.638550 791.262207,779.801636 798.938477,785.335327
	C813.300293,795.688416 828.083130,805.456482 842.654175,815.520996
	C849.622314,820.333984 856.501770,825.275269 863.429932,830.146362
	C872.718628,836.677063 881.977234,843.251709 891.319519,849.705017
	C901.624939,856.823669 912.036255,863.788696 922.354431,870.889038
	C934.994507,879.587036 947.660645,888.250305 960.175171,897.126465
	C970.731689,904.613892 981.007324,912.497131 991.558533,919.992249
	C999.706482,925.780090 1008.126282,931.183655 1016.356628,936.857483
	C1025.273560,943.004700 1034.017090,949.408997 1043.048340,955.380432
	C1045.339600,956.895447 1048.431885,957.920715 1051.163574,957.937134
	C1081.820923,958.121277 1112.479736,958.061829 1143.138062,958.073120
	C1150.071167,958.075684 1151.709229,960.072876 1150.601685,966.796143
	C1150.203857,969.211243 1150.201294,971.691406 1150.030762,975.038574
	C1150.030396,1025.568115 1150.010498,1075.200928 1150.042603,1124.833740
	C1150.043579,1126.216919 1150.604126,1127.599854 1150.903687,1128.982910
z"/>
</svg>
